<svg width="1074" height="203" viewBox="0 0 1074 203" fill="none" xmlns="http://www.w3.org/2000/svg">
  <path d="M276.7 165V38.82H303.16V69.78L301.9 85.8C305.26 82.8 309.16 80.04 313.6 77.52C318.04 74.88 323.32 73.56 329.44 73.56C339.16 73.56 346.18 76.74 350.5 83.1C354.94 89.46 357.16 98.28 357.16 109.56V165H330.7V112.98C330.7 106.5 329.8 102.06 328 99.66C326.32 97.26 323.56 96.06 319.72 96.06C316.36 96.06 313.48 96.84 311.08 98.4C308.68 99.84 306.04 101.94 303.16 104.7V165H276.7ZM377.732 165V75.72H404.192V165H377.732ZM390.872 62.58C386.432 62.58 382.772 61.32 379.892 58.8C377.012 56.16 375.572 52.8 375.572 48.72C375.572 44.64 377.012 41.34 379.892 38.82C382.772 36.3 386.432 35.04 390.872 35.04C395.432 35.04 399.092 36.3 401.852 38.82C404.732 41.34 406.172 44.64 406.172 48.72C406.172 52.8 404.732 56.16 401.852 58.8C399.092 61.32 395.432 62.58 390.872 62.58ZM425.678 165V38.82H451.418V111.18H452.138L480.398 75.72H509.198L477.878 112.44L511.538 165H482.918L462.758 130.26L451.418 143.04V165H425.678ZM557.354 167.16C550.994 167.16 545.054 166.14 539.534 164.1C534.014 161.94 529.214 158.88 525.134 154.92C521.054 150.84 517.874 145.92 515.594 140.16C513.314 134.4 512.174 127.8 512.174 120.36C512.174 113.16 513.374 106.68 515.774 100.92C518.174 95.04 521.294 90.12 525.134 86.16C529.094 82.08 533.594 78.96 538.634 76.8C543.674 74.64 548.894 73.56 554.294 73.56C560.654 73.56 566.174 74.64 570.854 76.8C575.654 78.96 579.614 81.96 582.734 85.8C585.974 89.64 588.374 94.2 589.934 99.48C591.494 104.64 592.274 110.28 592.274 116.4C592.274 118.8 592.154 121.08 591.914 123.24C591.674 125.4 591.434 127.02 591.194 128.1H537.734C538.934 134.58 541.574 139.38 545.654 142.5C549.854 145.5 554.954 147 560.954 147C567.314 147 573.734 145.02 580.214 141.06L589.034 157.08C584.474 160.2 579.374 162.66 573.734 164.46C568.214 166.26 562.754 167.16 557.354 167.16ZM537.554 110.64H569.774C569.774 105.6 568.634 101.52 566.354 98.4C564.074 95.28 560.234 93.72 554.834 93.72C550.634 93.72 546.914 95.1 543.674 97.86C540.554 100.62 538.514 104.88 537.554 110.64ZM608.758 165V75.72H630.358L632.158 91.38H632.878C636.118 85.26 640.018 80.76 644.578 77.88C649.138 75 653.698 73.56 658.258 73.56C660.778 73.56 662.818 73.74 664.378 74.1C666.058 74.34 667.558 74.76 668.878 75.36L664.558 98.22C662.878 97.74 661.318 97.38 659.878 97.14C658.438 96.9 656.758 96.78 654.838 96.78C651.478 96.78 647.938 97.98 644.218 100.38C640.618 102.78 637.618 107.04 635.218 113.16V165H608.758ZM678.677 165V38.82H705.137V69.78L703.877 85.8C707.237 82.8 711.137 80.04 715.577 77.52C720.017 74.88 725.297 73.56 731.417 73.56C741.137 73.56 748.157 76.74 752.477 83.1C756.917 89.46 759.137 98.28 759.137 109.56V165H732.677V112.98C732.677 106.5 731.777 102.06 729.977 99.66C728.297 97.26 725.537 96.06 721.697 96.06C718.337 96.06 715.457 96.84 713.057 98.4C710.657 99.84 708.017 101.94 705.137 104.7V165H678.677ZM819.669 167.16C813.309 167.16 807.369 166.14 801.849 164.1C796.329 161.94 791.529 158.88 787.449 154.92C783.369 150.84 780.189 145.92 777.909 140.16C775.629 134.4 774.489 127.8 774.489 120.36C774.489 113.16 775.689 106.68 778.089 100.92C780.489 95.04 783.609 90.12 787.449 86.16C791.409 82.08 795.909 78.96 800.949 76.8C805.989 74.64 811.209 73.56 816.609 73.56C822.969 73.56 828.489 74.64 833.169 76.8C837.969 78.96 841.929 81.96 845.049 85.8C848.289 89.64 850.689 94.2 852.249 99.48C853.809 104.64 854.589 110.28 854.589 116.4C854.589 118.8 854.469 121.08 854.229 123.24C853.989 125.4 853.749 127.02 853.509 128.1H800.049C801.249 134.58 803.889 139.38 807.969 142.5C812.169 145.5 817.269 147 823.269 147C829.629 147 836.049 145.02 842.529 141.06L851.349 157.08C846.789 160.2 841.689 162.66 836.049 164.46C830.529 166.26 825.069 167.16 819.669 167.16ZM799.869 110.64H832.089C832.089 105.6 830.949 101.52 828.669 98.4C826.389 95.28 822.549 93.72 817.149 93.72C812.949 93.72 809.229 95.1 805.989 97.86C802.869 100.62 800.829 104.88 799.869 110.64ZM871.073 165V75.72H892.673L894.473 91.38H895.193C898.433 85.26 902.333 80.76 906.893 77.88C911.453 75 916.013 73.56 920.573 73.56C923.093 73.56 925.133 73.74 926.693 74.1C928.373 74.34 929.873 74.76 931.193 75.36L926.873 98.22C925.193 97.74 923.633 97.38 922.193 97.14C920.753 96.9 919.073 96.78 917.153 96.78C913.793 96.78 910.253 97.98 906.533 100.38C902.933 102.78 899.933 107.04 897.533 113.16V165H871.073ZM971.094 167.16C965.574 167.16 960.534 166.08 955.974 163.92C951.534 161.76 947.694 158.7 944.454 154.74C941.334 150.66 938.874 145.74 937.074 139.98C935.394 134.22 934.554 127.68 934.554 120.36C934.554 113.04 935.574 106.5 937.614 100.74C939.774 94.98 942.534 90.12 945.894 86.16C949.374 82.08 953.334 78.96 957.774 76.8C962.334 74.64 966.954 73.56 971.634 73.56C976.674 73.56 980.814 74.4 984.054 76.08C987.294 77.76 990.474 80.04 993.594 82.92L992.514 69.24V38.82H1018.97V165H997.374L995.574 156.18H994.854C991.734 159.3 988.074 161.94 983.874 164.1C979.674 166.14 975.414 167.16 971.094 167.16ZM977.934 145.56C980.814 145.56 983.394 144.96 985.674 143.76C988.074 142.56 990.354 140.46 992.514 137.46V100.92C990.114 98.76 987.654 97.26 985.134 96.42C982.614 95.58 980.154 95.16 977.754 95.16C973.554 95.16 969.834 97.2 966.594 101.28C963.354 105.24 961.734 111.48 961.734 120C961.734 128.88 963.114 135.36 965.874 139.44C968.754 143.52 972.774 145.56 977.934 145.56Z" fill="white" />
  <rect width="203" height="203" rx="34" fill="white" />
  <path d="M164.983 142.179L107.384 52.9285C106.206 51.1037 104.178 50 102 50C99.822 50 97.794 51.1037 96.6161 52.9285L39.0166 142.179C38.395 143.142 38.0453 144.254 38.0041 145.398C37.9629 146.542 38.2319 147.676 38.7826 148.681C39.3336 149.686 40.1461 150.524 41.1346 151.108C42.1231 151.692 43.2513 152 44.4006 152H159.599C161.941 152 164.095 150.727 165.217 148.679C165.768 147.674 166.037 146.541 165.996 145.397C165.955 144.253 165.605 143.141 164.983 142.179ZM102 68.1648L119.078 94.625H102L89.2001 107.375L81.5882 99.7927L102 68.1648Z" fill="#2D3748" />
</svg>
